<svg xmlns="http://www.w3.org/2000/svg" width="180" height="38.158" viewBox="0 0 180 38.158"><defs><style>.a{fill:#223343;}</style></defs><path class="a" d="M55.2,37.163H50.542V17.49H55.2v7.628h6.921V17.49H66.77V37.163H62.117V28.827H55.2ZM71.941,54.892H70.763V45.1h1.178v4.168H76.83V45.1h1.178v9.793H76.83v-4.58H71.941Zm16.3.192c-3.52,0-4.094-2.327-4.094-5.081,0-2.827,1.016-5.081,4.359-5.081C92,44.922,92.6,47.029,92.6,50,92.6,52.89,91.57,55.084,88.242,55.084Zm.015-9.145c-1.767,0-2.916,1.31-2.916,4.2,0,2.959,1.179,3.96,3.24,3.96,1.532,0,2.828-1.266,2.828-4.2C91.408,47.1,90.363,45.939,88.257,45.939Zm16.7.632a4.041,4.041,0,0,0-2.415-.632c-1.767,0-2.916,1.31-2.916,4.2,0,2.959,1.179,3.96,3.24,3.96a3.345,3.345,0,0,0,2.252-1.03V50.827h-2.591V49.811h3.784v3.623a4.422,4.422,0,0,1-3.784,1.649c-3.534,0-4.093-2.327-4.093-5.081,0-2.827,1.015-5.081,4.358-5.081a4.847,4.847,0,0,1,2.827.766Zm7.819-1.473h5.948v1.046h-4.756v2.989h3.844V50.18h-3.844v3.666h4.89l.177,1.046h-6.258ZM124.7,53.11a5.2,5.2,0,0,0,3.077.986c1.546,0,2.165-.781,2.165-1.751s-.737-1.34-2.268-1.945c-1.8-.707-2.856-1.31-2.856-2.768,0-1.634,1.06-2.753,3.166-2.753a4.671,4.671,0,0,1,2.9.942l-.516.883a3.5,3.5,0,0,0-2.385-.839c-1.532,0-2.017.8-2.017,1.738,0,.751.942,1.267,2.4,1.826,1.532.6,2.725,1.252,2.725,2.886,0,1.751-1.09,2.769-3.313,2.769a5.74,5.74,0,0,1-3.49-.987Zm18.376-6.568a3.218,3.218,0,0,0-2.076-.6c-1.914,0-3.049,1.31-3.049,4.2,0,2.959,1.179,3.96,2.975,3.96a3.376,3.376,0,0,0,2.445-1.03l.678.809a4.307,4.307,0,0,1-3.254,1.208c-3.534,0-4.02-2.327-4.02-5.081,0-2.827.97-5.081,4.461-5.081a4.064,4.064,0,0,1,2.5.751Zm7.908,8.35h-1.179V45.1h1.179v4.168h4.888V45.1h1.178v9.793h-1.178v-4.58h-4.888Zm16.3.192c-3.52,0-4.094-2.327-4.094-5.081,0-2.827,1.017-5.081,4.359-5.081,3.49,0,4.094,2.106,4.094,5.081C171.647,52.89,170.616,55.084,167.288,55.084Zm.015-9.145c-1.768,0-2.917,1.31-2.917,4.2,0,2.959,1.178,3.96,3.24,3.96,1.531,0,2.827-1.266,2.827-4.2C170.454,47.1,169.408,45.939,167.3,45.939Zm14.268,9.145c-3.519,0-4.093-2.327-4.093-5.081,0-2.827,1.015-5.081,4.358-5.081,3.49,0,4.094,2.106,4.094,5.081C185.931,52.89,184.9,55.084,181.571,55.084Zm.015-9.145c-1.767,0-2.916,1.31-2.916,4.2,0,2.959,1.179,3.96,3.24,3.96,1.53,0,2.826-1.266,2.826-4.2C184.737,47.1,183.692,45.939,181.586,45.939Zm11.751,7.907h4.345l.133,1.046h-5.669V45.1h1.192ZM99.382,33.183l-1.443,3.888H92.9L100.678,17.4H104.8l7.422,19.674h-5.154l-1.383-3.888Zm5.272-3.534-1.414-3.769a14.162,14.162,0,0,1-.618-2.65,13.582,13.582,0,0,1-.854,3.092l-1.3,3.327Zm25.474-7.686a7.431,7.431,0,0,0-4.8-1.532c-2.68,0-4.359,2.445-4.359,7.068,0,4.682,1.767,6.567,4.978,6.567A4.3,4.3,0,0,0,128.8,32.8V29.5h-4.947V26.085h9.631V33.83c-1.267,1.591-3.475,3.712-8.188,3.712-7.8,0-9.041-4.771-9.041-10.309,0-5.625,2.239-10.307,9.513-10.307a11.808,11.808,0,0,1,6.567,2Zm9.395,9.924a10.631,10.631,0,0,0,6.362,2.179c2.061,0,2.945-1.089,2.945-2.356,0-1.325-1.326-1.826-3.594-2.68-4.093-1.561-6.214-3.152-6.214-6.155,0-3.534,2.416-5.949,7.275-5.949a12.084,12.084,0,0,1,6.921,2.179l-1.768,3.151a9.376,9.376,0,0,0-5.154-1.826c-2.031,0-2.68.942-2.68,2.032,0,1.031,1.061,1.532,3.829,2.65,3.534,1.443,5.979,2.828,5.979,6.332,0,3.769-2.532,6.1-7.833,6.1a11.767,11.767,0,0,1-7.539-2.268ZM159.491,17.4H173.3v3.5h-9.1v4h7.362v3.416H164.2v5.243h9.187l.5,3.505h-14.4ZM71.3,37.1h5.071l6.948-19.863H79.1ZM83.222,29.62H81.2l-1.274,3.629h4.343l1.292,3.828h5.319L84.463,20.3l-2.226,6.385ZM17.814,17.44H22c4.437,0,5.267,2.236,5.267,5.657,0,3.353-1.389,5.656-5.537,5.656H17.814Zm2.676,9.145h1.592c1.321,0,2.489-.948,2.489-3.59,0-2.523-.9-3.387-2.743-3.387H20.49ZM31.835,17.44h7.943v2.015H34.545v2.3h4.234v1.964H34.545v3.015h5.284l.288,2.015H31.835Z" transform="translate(-17.814 -16.926)"/></svg>